HIERARCHY
ROOT Hips
{
  OFFSET -32.5998 29.0326 120.673
  CHANNELS 6 Xposition Yposition Zposition Zrotation Xrotation Yrotation
  JOINT LeftUpLeg
  {
    OFFSET 8.64259 1.95398 -2.38835
    CHANNELS 3 Zrotation Xrotation Yrotation
    JOINT LeftLeg
    {
      OFFSET 43.7702 0 0
      CHANNELS 3 Zrotation Xrotation Yrotation
      JOINT LeftFoot
      {
        OFFSET 40.6238 0 0
        CHANNELS 3 Zrotation Xrotation Yrotation
        JOINT LeftToeBase
        {
          OFFSET 12.7242 0 0
          CHANNELS 3 Zrotation Xrotation Yrotation
          End Site
          {
            OFFSET 0 0 0
          }
        }
      }
    }
  }
  JOINT RightUpLeg
  {
    OFFSET -8.2249 1.95398 -2.59336
    CHANNELS 3 Zrotation Xrotation Yrotation
    JOINT RightLeg
    {
      OFFSET 43.5653 0 0
      CHANNELS 3 Zrotation Xrotation Yrotation
      JOINT RightFoot
      {
        OFFSET 40.6238 0 0
        CHANNELS 3 Zrotation Xrotation Yrotation
        JOINT RightToeBase
        {
          OFFSET 12.7242 0 0
          CHANNELS 3 Zrotation Xrotation Yrotation
          End Site
          {
            OFFSET 0 0 0
          }
        }
      }
    }
  }
  JOINT Spine
  {
    OFFSET 0.165834 0.87714 6.61349
    CHANNELS 3 Zrotation Xrotation Yrotation
    JOINT Spine1
    {
      OFFSET 7.38963 1.71661e-005 0
      CHANNELS 3 Zrotation Xrotation Yrotation
      JOINT Spine2
      {
        OFFSET 11.9445 1.14441e-005 0
        CHANNELS 3 Zrotation Xrotation Yrotation
        JOINT Spine3
        {
          OFFSET 14.7254 4.19617e-005 0
          CHANNELS 3 Zrotation Xrotation Yrotation
          JOINT Spine4
          {
            OFFSET 10.9679 0 0
            CHANNELS 3 Zrotation Xrotation Yrotation
            JOINT RightShoulder
            {
              OFFSET 2.46616 -1.6653 3.69651
              CHANNELS 3 Zrotation Xrotation Yrotation
              JOINT RightArm
              {
                OFFSET 13.0012 0 0
                CHANNELS 3 Zrotation Xrotation Yrotation
                JOINT RightForeArm
                {
                  OFFSET 28.7848 1.62311e-005 0
                  CHANNELS 3 Zrotation Xrotation Yrotation
                  JOINT RightHand
                  {
                    OFFSET 26.5688 1.62095e-005 0
                    CHANNELS 3 Zrotation Xrotation Yrotation
                    End Site
                    {
                      OFFSET 0 0 0
                    }
                  }
                }
              }
            }
            JOINT LeftShoulder
            {
              OFFSET 2.38034 -1.29275 -3.7523
              CHANNELS 3 Zrotation Xrotation Yrotation
              JOINT LeftArm
              {
                OFFSET 16.3182 6.07031e-005 0
                CHANNELS 3 Zrotation Xrotation Yrotation
                JOINT LeftForeArm
                {
                  OFFSET 27.0901 0 0
                  CHANNELS 3 Zrotation Xrotation Yrotation
                  JOINT LeftHand
                  {
                    OFFSET 24.5451 1.51738e-005 0
                    CHANNELS 3 Zrotation Xrotation Yrotation
                    End Site
                    {
                      OFFSET 0 0 0
                    }
                  }
                }
              }
            }
            JOINT Neck
            {
              OFFSET 5.0226 -0.0266342 0
              CHANNELS 3 Zrotation Xrotation Yrotation
              JOINT Head
              {
                OFFSET 6.69364 2.86102e-005 0
                CHANNELS 3 Zrotation Xrotation Yrotation
                End Site
                {
                  OFFSET 0 0 0
                }
              }
            }
          }
        }
      }
    }
  }
}
MOTION
Frames:	7
Frame Time:	0.0416667
1.08621 93.7851 -26.4367 97.4067 -61.5134 99.6261 -175.792 16.5945 102.991 -46.3908 33.2082 5.94488 89.1966 18.3164 -6.04276 21.0883 -8.81357 10.8084 168.668 14.2997 66.2085 -28.77 -23.524 -8.20501 63.6418 -1.04777 -1.38796 16.9238 4.80161 1.87701 -0.281757 7.90742 -90.7276 11.0517 -0.898111 -1.36148 -0.619564 -0.957167 -1.32065 -23.1498 -0.447482 -1.56841 -3.13717 -0.447469 -1.56842 94.2789 -25.5921 -99.3968 51.5283 -6.70477 15.6557 -9.83677 -6.74087 -18.1366 -9.44475 0.138469 -7.24079 -84.7908 -42.0328 85.4569 -11.5035 26.6208 -14.8127 10.4129 -6.62397 -36.3696 -3.41378 -0.0963697 -3.72672 -26.6421 -5.87898 -5.60974 -11.447 -6.55003 -0.15597 
-8.44725 90.9837 -19.6405 97.7364 -61.0199 98.4496 -174.27 16.1545 109.799 -45.0511 36.4839 7.34396 89.4839 17.9235 -7.43422 28.7368 -6.42749 14.9611 168.332 18.2253 65.4575 -33.5987 -23.5069 -6.64982 61.2354 0.23628 -0.287767 22.5756 2.8556 -0.353399 -0.529337 7.98385 -90.6016 10.9004 -1.33205 -1.06993 -0.770217 -1.37787 -1.01027 -23.3052 -0.948941 -1.42077 -3.29253 -0.948949 -1.42078 95.1287 -25.3613 -97.6053 53.7122 -7.61322 18.066 -9.5159 -8.6954 -17.1439 -8.66742 0.154579 -7.67908 -84.5331 -42.1115 85.895 -14.649 22.7576 -9.86878 10.9469 -5.58203 -34.1669 -1.41189 -0.0805201 -3.07108 -26.4611 -6.53363 -5.17962 -11.7715 -7.04664 -1.86924 
-20.3321 90.4037 -11.8643 104.957 -63.9629 104.028 -174.19 14.5057 115.82 -46.9817 41.8913 11.5141 69.1065 6.71838 -1.85198 41.6032 -0.616602 19.0697 167.407 19.3956 68.8056 -44.1351 -23.961 -4.39037 66.0002 -3.71182 0.556536 39.3563 -4.04693 -4.29511 -0.437366 8.4014 -90.3949 10.0668 -1.05113 -0.697356 -1.60386 -1.08081 -0.650423 -24.1396 -0.792964 -0.981016 -4.12691 -0.792959 -0.981017 94.9641 -24.5848 -98.1774 55.1131 -8.57159 17.1281 -8.75507 -9.32763 -15.3513 -9.69635 0.124025 -6.98429 -83.7048 -42.5661 87.3299 -18.6119 17.1158 -0.00696487 10.164 -6.31597 -33.0451 -3.12693 -0.0986118 -3.1456 -27.0068 -4.75468 -1.77151 -11.4939 -4.86598 -2.84311 
-31.4129 92.6942 -5.8941 110.996 -67.2834 110.404 175.196 18.1703 115.116 -63.3734 41.4187 19.6077 51.8541 -4.64535 -0.149111 13.2847 -9.77395 5.65148 167.996 16.753 76.3809 -46.3455 -21.5505 -2.46275 71.5755 -7.33375 1.59812 39.2601 -4.59178 -0.376367 -0.0911436 8.7653 -90.4221 9.34132 -0.371253 -0.809135 -2.32979 -0.406504 -0.792017 -24.8631 -0.110921 -0.883297 -4.85043 -0.110921 -0.883299 93.5081 -24.3509 -101.473 51.3907 -9.75209 13.9717 -9.14991 -8.64347 -16.8734 -11.5988 0.091802 -6.33569 -83.3602 -44.0507 88.0718 -22.3151 14.3082 8.00851 10.0916 -5.97223 -33.0988 -4.69695 -0.104523 -3.67602 -28.5501 -3.24151 -0.0355302 -10.8815 -3.13098 -3.28983 
-39.4148 95.3698 -1.95788 112.242 -71.3051 111.166 172.932 27.8278 107.778 -67.3735 29.5901 12.1209 61.651 0.971106 2.27015 5.42563 -12.4675 2.80079 169.285 13.4363 81.3846 -40.9542 -21.223 -1.22589 73.3603 -8.36628 1.55143 36.2254 -3.6715 2.17933 0.394868 8.81372 -90.4631 9.24803 0.579901 -0.959495 -2.42315 0.537121 -0.984104 -24.9575 0.841449 -0.740871 -4.94485 0.841455 -0.740874 93.7852 -23.2608 -101.224 44.4648 -7.85457 9.09795 -11.4434 -7.73131 -21.5703 -11.5136 0.108657 -6.51755 -83.3264 -45.3895 88.2784 -27.485 15.4053 12.0158 11.1483 -3.91478 -30.0684 -3.84878 -0.1111 -2.77347 -29.5692 -3.1713 0.58085 -10.3611 -2.99135 -3.54685 
-45.5579 97.5874 1.78899 110.731 -76.1582 109.236 -176.486 36.2913 94.921 -58.052 19.9516 1.58414 65.6081 2.47538 -1.16812 11.9761 -11.295 6.34667 169.845 11.1437 84.5564 -34.6014 -23.6629 0.506078 73.1392 -7.99441 1.248 31.9373 -2.16346 3.59089 0.829855 8.69717 -90.4918 9.48638 1.43321 -1.08166 -2.18424 1.38421 -1.1437 -24.7246 1.69201 -0.600851 -4.71191 1.69201 -0.600855 93.913 -22.2663 -101.278 38.8692 -4.67658 4.24891 -14.0706 -6.28751 -29.3299 -13.0734 0.0963734 -6.2317 -82.6541 -44.4399 89.2568 -34.3656 16.5372 16.3568 10.7638 -3.79501 -28.9177 -5.7082 -0.0827769 -4.71397 -29.9623 -3.03358 0.927464 -9.21573 -2.86388 -3.03531 
-50.9604 98.0875 6.20787 110.119 -80.0586 109.865 -166.68 38.0097 83.2259 -48.176 8.56576 -6.79434 65.9888 1.81127 -3.19277 19.3015 -8.68549 8.74964 170.874 8.82485 88.7863 -31.7183 -25.7942 2.25471 73.666 -8.51596 -0.0275948 28.6152 -1.16769 5.04253 1.03887 8.56481 -90.784 9.7539 1.71612 -1.69189 -1.91713 1.64001 -1.76577 -24.4568 2.1452 -1.09787 -4.44418 2.14521 -1.09787 93.9008 -21.4599 -101.586 35.8484 -3.20052 1.10231 -18.1668 -6.80048 -40.4675 -11.9846 -0.0356917 -5.00393 -82.3537 -44.2048 89.7212 -38.7611 18.2012 20.5017 9.98604 -4.50814 -28.0629 -5.38184 -0.103858 -3.82878 -30.3015 -2.87284 2.22984 -9.15012 -2.57717 -2.14749 
